<svg width="218" height="90" viewBox="0 0 218 90" fill="none" xmlns="http://www.w3.org/2000/svg">
<path d="M0.0909091 64L7.81818 17.4545H41.3636L39.6364 27.6364H18.7273L17.4545 35.6364H36.6364L34.9091 45.8182H15.7273L14.4545 53.8182H35.2727L33.5455 64H0.0909091ZM58.0852 64H39.9034L47.6307 17.4545H65.0852C69.8731 17.4545 73.8731 18.4167 77.0852 20.3409C80.2974 22.2652 82.5777 25.0152 83.9261 28.5909C85.2746 32.1667 85.5398 36.4242 84.7216 41.3636C83.9337 46.1212 82.3352 50.1894 79.9261 53.5682C77.5322 56.947 74.4716 59.5303 70.7443 61.3182C67.0322 63.1061 62.8125 64 58.0852 64ZM54.3125 53.2727H58.9034C61.2064 53.2727 63.2595 52.8712 65.0625 52.0682C66.8807 51.25 68.3958 49.8864 69.608 47.9773C70.8352 46.053 71.7216 43.4242 72.267 40.0909C72.7822 36.9394 72.767 34.5076 72.2216 32.7955C71.6761 31.0682 70.6383 29.8712 69.108 29.2045C67.5777 28.5227 65.6004 28.1818 63.1761 28.1818H58.4943L54.3125 53.2727ZM94.5682 17.4545H110.295L116.75 43.8182H117.295L132.477 17.4545H148.205L140.477 64H128.114L132.568 37.0909H132.205L117.477 63.6364H110.023L104.114 36.9091H103.75L99.2045 64H86.8409L94.5682 17.4545Z" fill="black"/>
<path d="M217.844 6.5357C218.14 6.06934 218.002 5.45145 217.536 5.15559L209.936 0.334291C209.47 0.0384321 208.852 0.176646 208.556 0.642999C208.26 1.10935 208.398 1.72725 208.865 2.02311L215.62 6.30871L211.334 13.064C211.038 13.5303 211.177 14.1482 211.643 14.4441C212.109 14.7399 212.727 14.6017 213.023 14.1354L217.844 6.5357ZM65.2183 40.9759L217.218 6.97588L216.782 5.02411L64.7817 39.0241L65.2183 40.9759Z" fill="black"/>
<path d="M65.7071 4.29289C65.3166 3.90237 64.6834 3.90237 64.2929 4.29289L57.9289 10.6569C57.5384 11.0474 57.5384 11.6805 57.9289 12.0711C58.3195 12.4616 58.9526 12.4616 59.3431 12.0711L65 6.41421L70.6569 12.0711C71.0474 12.4616 71.6805 12.4616 72.0711 12.0711C72.4616 11.6805 72.4616 11.0474 72.0711 10.6569L65.7071 4.29289ZM66 41V5H64L64 41H66Z" fill="black"/>
<path d="M86.6446 89.9347C87.1608 90.131 87.7384 89.8717 87.9347 89.3554L91.1337 80.9432C91.33 80.427 91.0707 79.8493 90.5545 79.653C90.0383 79.4567 89.4606 79.7161 89.2643 80.2323L86.4208 87.7099L78.9432 84.8663C78.427 84.67 77.8493 84.9293 77.653 85.4455C77.4567 85.9617 77.7161 86.5394 78.2323 86.7357L86.6446 89.9347ZM64.0877 40.4096L86.0877 89.4096L87.9123 88.5904L65.9123 39.5904L64.0877 40.4096Z" fill="black"/>
</svg>
